<svg xmlns="http://www.w3.org/2000/svg" width="59.289" height="14.71" viewBox="0 0 59.289 14.71"><g transform="translate(0 -3.418)"><path d="M83.842,11.451a3.2,3.2,0,0,0-2.5-.781,3.152,3.152,0,0,0-2.533.794,3.084,3.084,0,0,0-.578,2.082,3.02,3.02,0,0,0,.59,2.082,3.183,3.183,0,0,0,2.546.794c1.93,0,2.774-.686,3.092-1.67h-.851c-.26.629-1.009.946-2.241.946-1.886,0-2.33-.673-2.355-1.8h5.46V13.54a4.1,4.1,0,0,0-.1-1.067A1.783,1.783,0,0,0,83.842,11.451Zm-4.831,1.727c.057-1.124.451-1.79,2.343-1.79,1.625,0,2.336.559,2.336,1.79Z" transform="translate(-28.566 -2.648)" fill="#505050"/><path d="M39.63,12.475v3.917H40.4V12.45a.874.874,0,0,1,1-.933h1.8V10.78h-1.8A1.642,1.642,0,0,0,39.63,12.475Z" transform="translate(-14.471 -2.688)" fill="#505050"/><path d="M90.728,10.64a1.238,1.238,0,1,0,1.238,1.238A1.24,1.24,0,0,0,90.728,10.64Zm0,2.222a.984.984,0,1,1,.984-.984A.989.989,0,0,1,90.728,12.862Z" transform="translate(-32.677 -2.637)" fill="#505050"/><path d="M31.6,10.65a4.736,4.736,0,0,0-2.241.463v.819a4.565,4.565,0,0,1,2.247-.546c1.562,0,2.158.413,2.393,1.352H31.606c-.3,0-.4.013-.749.025-.165.013-.311.025-.413.044a3.428,3.428,0,0,0-.794.222,1.481,1.481,0,0,0-.851,1.435,1.564,1.564,0,0,0,1.244,1.714,5.464,5.464,0,0,0,1.562.165h1.549c1.136,0,1.682-.482,1.682-1.613V13.608a2.955,2.955,0,0,0-.654-2.12A3.28,3.28,0,0,0,31.6,10.65Zm2.476,3.162v.946a1.008,1.008,0,0,1-.133.629c-.108.152-.356.222-.781.222H31.612c-1.765-.044-2.025-.33-2.038-1.149a.839.839,0,0,1,.768-.9,5.39,5.39,0,0,1,1.27-.108h2.463v.362Z" transform="translate(-10.516 -2.641)" fill="#505050"/><path d="M72.8,9.652H70.353c-1.809,0-2.6.654-2.6,2.26V13c0,1.625.806,2.26,2.6,2.26h1.53c1.149,0,1.7-.5,1.7-1.632V7.69H72.81V9.652Zm0,4c0,.66-.152.876-.927.876h-1.53a2.528,2.528,0,0,1-1.435-.3,1.42,1.42,0,0,1-.4-1.194V11.874a1.4,1.4,0,0,1,.413-1.194,2.479,2.479,0,0,1,1.422-.3H72.8v3.269Z" transform="translate(-24.739 -1.56)" fill="#505050"/><path d="M62.222,11.451a3.2,3.2,0,0,0-2.5-.781,3.152,3.152,0,0,0-2.533.794,3.084,3.084,0,0,0-.578,2.082,3.02,3.02,0,0,0,.59,2.082,3.183,3.183,0,0,0,2.546.794c1.93,0,2.774-.686,3.092-1.67h-.851c-.26.629-1.009.946-2.241.946-1.886,0-2.33-.673-2.355-1.8h5.46V13.54a4.1,4.1,0,0,0-.1-1.067A1.822,1.822,0,0,0,62.222,11.451Zm-4.838,1.727c.057-1.124.451-1.79,2.343-1.79,1.625,0,2.33.559,2.33,1.79Z" transform="translate(-20.671 -2.648)" fill="#505050"/><path d="M50.267,10.78h-1.5c-1.809,0-2.6.641-2.6,2.26v1.092c0,1.613.806,2.26,2.6,2.26h2.419c-.044.933-.508,1.232-1.752,1.232h-2.3v.736h2.3a4.918,4.918,0,0,0,.889-.057,1.756,1.756,0,0,0,.921-.394,2.036,2.036,0,0,0,.724-1.809V12.418C51.963,11.275,51.436,10.78,50.267,10.78Zm.921,4.882H48.763a2.309,2.309,0,0,1-1.467-.33,1.5,1.5,0,0,1-.368-1.162V13.008c.013-1.079.3-1.447,1.835-1.492h1.5c.838,0,.927.26.927.876v3.269Z" transform="translate(-16.855 -2.688)" fill="#505050"/><path d="M91.453,12.384a.806.806,0,0,0-.108-.089.323.323,0,0,0,.2-.1.281.281,0,0,0,.07-.19.26.26,0,0,0-.044-.159.221.221,0,0,0-.121-.1.744.744,0,0,0-.241-.025H90.78v1.022h.21v-.425h.044a.36.36,0,0,1,.1.013.13.13,0,0,1,.063.044.993.993,0,0,1,.108.152l.152.222h.248l-.127-.2A.932.932,0,0,0,91.453,12.384Zm-.317-.229h-.152V11.9h.159a.781.781,0,0,1,.152.006.145.145,0,0,1,.076.038.117.117,0,0,1,.025.083.135.135,0,0,1-.019.076.138.138,0,0,1-.057.044A.555.555,0,0,1,91.136,12.155Z" transform="translate(-33.148 -3.035)" fill="#505050"/><path d="M14.779,6.625a2.4,2.4,0,0,0-.584-.184,7.416,7.416,0,0,0-1.3-.133c-.146-.006-.292,0-.444,0,.07,0,.133-.006.2-.006h0c-.14,0-.286.006-.425.006-.089,0-.171,0-.26.006-.279.013-.552.032-.832.07a5.657,5.657,0,0,0-.965.2,2.881,2.881,0,0,0-.673.292,1.881,1.881,0,0,0-.578.54,2.033,2.033,0,0,0-.216.4c-.025.057-.051.114-.07.171h0a.519.519,0,0,1-.241.032L6.1,8.035c.3-1.282,2.317-3.377,3.492-3.961q.1-.048.171-.1h0a.513.513,0,0,0,.235-.2l.006-.006a.09.09,0,0,0,.013-.038.023.023,0,0,1,.006-.019V3.711c0-.006-.006-.006-.006-.013s-.006-.013-.006-.025a.111.111,0,0,0-.025-.032L9.98,3.635A.375.375,0,0,0,9.929,3.6h0A.028.028,0,0,0,9.91,3.6l-.038-.019H9.866a.048.048,0,0,1-.032-.013.149.149,0,0,0-.051-.013l-.1-.019c-.025-.006-.051-.006-.076-.013s-.063-.006-.1-.013c-.013,0-.025-.006-.038-.006A.081.081,0,0,1,9.434,3.5.069.069,0,0,1,9.4,3.489c-.019,0-.038-.006-.057-.006s-.057-.006-.083-.013H9.243a.39.39,0,0,0-.083-.006c-.21-.025-.425-.038-.654-.044-.279-.006-.559.013-.838.032a8.078,8.078,0,0,0-1.359.216,8.72,8.72,0,0,0-1.022.324l.044-.019a1.551,1.551,0,0,0-.152.063c-.076.032-.146.057-.222.089-.121.051-.235.1-.349.159-.063.032-.127.057-.184.089-.171.089-.336.178-.5.273l-.1.057c-.133.083-.267.171-.394.26-.057.038-.108.083-.165.121-.1.076-.21.159-.3.241-.057.044-.108.089-.165.14-.1.089-.2.178-.3.273-.044.044-.089.083-.14.133-.14.14-.279.286-.406.432-.159.184-.311.375-.457.565A7.645,7.645,0,0,0,0,11.425c0,.222.013.438.032.66A7.441,7.441,0,0,0,.21,13.2a7.8,7.8,0,0,0,2.032,3.663,8.448,8.448,0,0,0,1.422,1.168l.006.006a.257.257,0,0,0,.057.032c.514.267.21-.5.21-.5a4.8,4.8,0,0,1-.121-3.739c.063-.14.127-.273.2-.406.032-.057.063-.114.1-.178a2.248,2.248,0,0,1,.121-.21c.051-.083.1-.159.159-.235.032-.044.057-.089.089-.133.063-.089.127-.171.2-.254.025-.032.044-.063.07-.1.07-.083.146-.165.216-.248.025-.025.051-.057.076-.083.076-.083.159-.159.241-.235l.076-.076c.083-.076.171-.146.26-.222.032-.025.057-.051.083-.07.089-.07.178-.133.273-.2.038-.025.07-.051.108-.076h0c.013-.006.019-.013.032-.019.152-.1.311-.2.47-.292.006-.006.013-.006.025-.013a7.694,7.694,0,0,1,1.543-.648,10.049,10.049,0,0,1,1.3-.292c.381-.063.768-.1,1.149-.127.248-.013.5-.019.743-.025.425-.013.857-.019,1.282-.07a7.336,7.336,0,0,0,1.041-.2,3.456,3.456,0,0,0,.641-.254,1.8,1.8,0,0,0,.8-.813,2.67,2.67,0,0,0,.19-.533,1.6,1.6,0,0,0,.044-.489.721.721,0,0,0-.248-.5A.784.784,0,0,0,14.779,6.625Z" transform="translate(0 0)" fill="#505050"/><path d="M17.842,17.858a.038.038,0,0,0-.025.006,9.393,9.393,0,0,1-1.822.381h0c-.3.032-.609.063-.914.076-.451.013-.908.013-1.359.044a7.9,7.9,0,0,0-1.155.159,3.608,3.608,0,0,0-.8.273,1.85,1.85,0,0,0-.546.413c.013-.013.019-.025.025-.032-.013.013-.019.025-.025.032a1.825,1.825,0,0,0-.21.273h0a2.288,2.288,0,0,0-.165.33,2,2,0,0,1,.165-.33,2.443,2.443,0,0,0-.3.787.372.372,0,0,0-.013.083c0-.006.006-.006.006-.013a1.408,1.408,0,0,0-.006.4.721.721,0,0,0,.038.159.8.8,0,0,0,.324.4,1.79,1.79,0,0,0,.432.2,3.98,3.98,0,0,0,.851.178,8.629,8.629,0,0,0,.971.057c.292,0,.533-.006.755-.019H14.1c.127-.006.254-.013.375-.025a6.729,6.729,0,0,0,1-.159,3.405,3.405,0,0,0,.819-.292,1.777,1.777,0,0,0,.825-.832,2.356,2.356,0,0,0,.14-.349c.044-.133.083-.267.127-.406.133-.432.273-.914.406-1.346h0c0-.013.006-.019.006-.032s.006-.013.006-.025h0c.019-.076.044-.146.057-.184s.025-.108.038-.159C17.931,17.871,17.893,17.845,17.842,17.858Z" transform="translate(-3.9 -5.272)" fill="#505050"/></g></svg>