<svg xmlns="http://www.w3.org/2000/svg" xmlns:xlink="http://www.w3.org/1999/xlink" width="26.727" height="21.01" viewBox="0 0 26.727 21.01"><defs><clipPath id="a"><path d="M18.58,25.726A1.353,1.353,0,0,1,17.15,24.3V10a1.43,1.43,0,0,1,2.859,0V24.3A1.354,1.354,0,0,1,18.58,25.726Zm-8.575,0A1.353,1.353,0,0,1,8.576,24.3V1.429A1.353,1.353,0,0,1,10,0a1.353,1.353,0,0,1,1.429,1.429V24.3A1.353,1.353,0,0,1,10,25.726Zm-8.576,0A1.353,1.353,0,0,1,0,24.3V15.721a1.353,1.353,0,0,1,1.429-1.429,1.353,1.353,0,0,1,1.429,1.429V24.3A1.353,1.353,0,0,1,1.429,25.726Z" transform="translate(0)" fill="#0b87aa"/></clipPath></defs><g transform="translate(0.5 20.51) rotate(-90)"><path d="M18.58,25.727A1.353,1.353,0,0,1,17.151,24.3V10a1.429,1.429,0,1,1,2.858,0V24.3A1.353,1.353,0,0,1,18.58,25.727Zm-8.576,0A1.353,1.353,0,0,1,8.575,24.3V1.429A1.353,1.353,0,0,1,10,0a1.353,1.353,0,0,1,1.429,1.429V24.3A1.353,1.353,0,0,1,10,25.727Zm-8.575,0A1.353,1.353,0,0,1,0,24.3V15.722a1.353,1.353,0,0,1,1.429-1.43,1.353,1.353,0,0,1,1.429,1.43V24.3A1.353,1.353,0,0,1,1.429,25.727Z" transform="translate(0)" fill="#c62829" stroke="rgba(112,112,112,0)" stroke-width="1"/></g></svg>