<svg width="90" height="90" viewBox="0 0 90 90" fill="none" xmlns="http://www.w3.org/2000/svg">
<rect width="90" height="90" rx="16" fill="#cc2426" fill-opacity="0.2"/>
<path d="M42.7123 47.288C40.4991 45.0956 38.7103 42.5129 37.4363 39.67C37.3191 39.3929 37.2881 39.0868 37.3473 38.7918C37.4065 38.4968 37.5532 38.2265 37.7683 38.016L39.4063 36.38C40.7483 35.038 40.7483 33.14 39.5763 31.968L37.2283 29.62C36.4782 28.8701 35.4609 28.4489 34.4003 28.4489C33.3396 28.4489 32.3224 28.8701 31.5723 29.62L30.2683 30.924C28.7863 32.406 28.1683 34.544 28.5683 36.664C29.5563 41.89 32.5923 47.612 37.4903 52.51C42.3883 57.408 48.1103 60.444 53.3363 61.432C55.4563 61.832 57.5943 61.214 59.0763 59.732L60.3783 58.43C61.1282 57.6799 61.5494 56.6627 61.5494 55.602C61.5494 54.5413 61.1282 53.5241 60.3783 52.774L58.0323 50.428C57.4697 49.8656 56.7068 49.5496 55.9113 49.5496C55.1158 49.5496 54.3529 49.8656 53.7903 50.428L51.9843 52.236C51.7738 52.4511 51.5035 52.5977 51.2085 52.657C50.9135 52.7162 50.6074 52.6852 50.3303 52.568C47.4877 51.2917 44.9051 49.5018 42.7123 47.288V47.288Z" stroke="#cc2426" stroke-width="3" stroke-linecap="round" stroke-linejoin="round"/>
</svg>
